<svg width="47" height="38" viewBox="0 0 47 38" fill="none" xmlns="http://www.w3.org/2000/svg">
<path d="M40.9303 7.48813C40.7556 6.80551 40.2618 6.29048 39.6962 6.1316C38.6913 5.85142 33.8125 4.29167 23.5 4.29167C13.1875 4.29167 8.30982 5.85167 7.30087 6.1324C6.74058 6.28824 6.24682 6.80317 6.0699 7.48813C5.82057 8.46074 3.79171 12.5324 3.79171 18.9583C3.79171 25.3842 5.82057 29.456 6.07059 30.4313C6.24443 31.1113 6.73829 31.6262 7.30146 31.7843C8.30982 32.0651 13.1875 33.1667 23.5001 33.1667C33.8126 33.1667 38.6913 32.0653 39.6992 31.7843C40.2595 31.6285 40.7534 31.1136 40.9303 30.4286C41.1796 29.456 42.75 25.375 42.75 18.9583C42.75 12.5417 41.1796 8.46074 40.9303 7.48813ZM45.3699 6.35C46.4168 10.4333 46.4167 18.9583 46.4167 18.9583C46.4167 18.9583 46.4168 27.4833 45.3699 31.5666C44.7867 33.8251 43.0847 35.6 40.9273 36.1999C37.012 37.2917 23.5001 37.2917 23.5001 37.2917C23.5001 37.2917 9.99614 37.2917 6.07281 36.1999C3.90739 35.5917 2.20544 33.8166 1.63012 31.5666C0.583374 27.4833 0.583374 18.9583 0.583374 18.9583C0.583374 18.9583 0.583374 10.4333 1.63012 6.35C2.21341 4.09167 3.91539 2.31666 6.07281 1.71666C9.99614 0.625 23.5001 0.625 23.5001 0.625C23.5001 0.625 37.012 0.625 40.9273 1.71666C43.0927 2.325 44.7947 4.09999 45.3699 6.35ZM18.9168 26.9792V10.9375L32.6667 18.9583L18.9168 26.9792Z" fill="white"/>
</svg>
